# xmcd
#
# Track frame offsets:
#	150
#	17520
#	32460
#	44195
#	55935
#	68385
#	79775
#	92570
#	107365
#	120450
#	136330
#	151730
#
# Disc length: 2247 seconds
#
# Revision: 1
# Processed by: cddbd v1.5.2PL0 Copyright (c) Steve Scherf et al.
# Submitted via: audiograbber 1.83.01
#
DISCID=8608c50c
DTITLE=ADELINO NASCIMENTO - NÃO TOQUE ESTA MÚSICA
DYEAR=1900
DGENRE=
TTITLE0=NÃO TOQUE ESTA MÚSICA
TTITLE1=ADÃO E EVA
TTITLE2=ROMEU E JULIETA
TTITLE3=COMIGO NÃO COLA
TTITLE4=CARA CONTRA O MURO
TTITLE5=SEM QUERER QUERENDO
TTITLE6=ADEUS INGRATA
TTITLE7=SOU LOUCO POR ELA
TTITLE8=UM PEDAÇO DO MEU CORAÇÃO
TTITLE9=EU HOJE ACORDEI PENSANDO
TTITLE10=MULHER FINGIDA
TTITLE11=MULHER FALSA
EXTD=
EXTT0=
EXTT1=
EXTT2=
EXTT3=
EXTT4=
EXTT5=
EXTT6=
EXTT7=
EXTT8=
EXTT9=
EXTT10=
EXTT11=
PLAYORDER=
